<mxfile host="app.diagrams.net" agent="Mozilla/5.0 (Windows NT 10.0; Win64; x64) AppleWebKit/537.36 (KHTML, like Gecko) Chrome/139.0.0.0 Safari/537.36 Edg/139.0.0.0" version="28.1.2">
  <diagram name="Estructura" id="LSjinxiDkwQhpM0Oxm4z">
    <mxGraphModel grid="1" page="1" gridSize="10" guides="1" tooltips="1" connect="1" arrows="1" fold="1" pageScale="1" pageWidth="827" pageHeight="1169" math="0" shadow="0">
      <root>
        <mxCell id="0" />
        <mxCell id="1" parent="0" />
        <mxCell id="JwO9iRjCoK25Ud6K1Ixc-2" value="ICS_4K3_2025_Grupo5" style="html=1;whiteSpace=wrap;" vertex="1" parent="1">
          <mxGeometry x="20" y="80" width="160" height="30" as="geometry" />
        </mxCell>
        <mxCell id="JwO9iRjCoK25Ud6K1Ixc-22" style="edgeStyle=orthogonalEdgeStyle;rounded=0;orthogonalLoop=1;jettySize=auto;html=1;exitX=0;exitY=0.5;exitDx=0;exitDy=0;endArrow=none;endFill=0;" edge="1" parent="1" source="JwO9iRjCoK25Ud6K1Ixc-3">
          <mxGeometry relative="1" as="geometry">
            <mxPoint x="40" y="144.80952380952374" as="targetPoint" />
          </mxGeometry>
        </mxCell>
        <mxCell id="JwO9iRjCoK25Ud6K1Ixc-3" value="Material" style="html=1;whiteSpace=wrap;" vertex="1" parent="1">
          <mxGeometry x="80" y="130" width="110" height="30" as="geometry" />
        </mxCell>
        <mxCell id="JwO9iRjCoK25Ud6K1Ixc-28" style="edgeStyle=orthogonalEdgeStyle;rounded=0;orthogonalLoop=1;jettySize=auto;html=1;exitX=0.25;exitY=1;exitDx=0;exitDy=0;entryX=0;entryY=0.5;entryDx=0;entryDy=0;endArrow=none;endFill=0;" edge="1" parent="1" source="JwO9iRjCoK25Ud6K1Ixc-6" target="JwO9iRjCoK25Ud6K1Ixc-27">
          <mxGeometry relative="1" as="geometry" />
        </mxCell>
        <mxCell id="JwO9iRjCoK25Ud6K1Ixc-6" value="Bibliografia" style="html=1;whiteSpace=wrap;" vertex="1" parent="1">
          <mxGeometry x="140" y="180" width="110" height="30" as="geometry" />
        </mxCell>
        <mxCell id="JwO9iRjCoK25Ud6K1Ixc-13" style="edgeStyle=orthogonalEdgeStyle;rounded=0;orthogonalLoop=1;jettySize=auto;html=1;exitX=0;exitY=0.5;exitDx=0;exitDy=0;endArrow=none;endFill=0;" edge="1" parent="1" source="JwO9iRjCoK25Ud6K1Ixc-7">
          <mxGeometry relative="1" as="geometry">
            <mxPoint x="100" y="295" as="targetPoint" />
          </mxGeometry>
        </mxCell>
        <mxCell id="JwO9iRjCoK25Ud6K1Ixc-7" value="Presentaciones" style="html=1;whiteSpace=wrap;" vertex="1" parent="1">
          <mxGeometry x="140" y="280" width="110" height="30" as="geometry" />
        </mxCell>
        <mxCell id="JwO9iRjCoK25Ud6K1Ixc-8" value="Templates" style="html=1;whiteSpace=wrap;" vertex="1" parent="1">
          <mxGeometry x="140" y="330" width="110" height="30" as="geometry" />
        </mxCell>
        <mxCell id="JwO9iRjCoK25Ud6K1Ixc-9" style="edgeStyle=orthogonalEdgeStyle;rounded=0;orthogonalLoop=1;jettySize=auto;html=1;exitX=0;exitY=0.5;exitDx=0;exitDy=0;entryX=0.125;entryY=1;entryDx=0;entryDy=0;entryPerimeter=0;endArrow=none;endFill=0;" edge="1" parent="1" source="qOB5dR7hyFPoWQHUWh1D-2" target="JwO9iRjCoK25Ud6K1Ixc-2">
          <mxGeometry relative="1" as="geometry">
            <Array as="points">
              <mxPoint x="40" y="785" />
            </Array>
          </mxGeometry>
        </mxCell>
        <mxCell id="qOB5dR7hyFPoWQHUWh1D-2" value="Planificacion" style="html=1;whiteSpace=wrap;" vertex="1" parent="1">
          <mxGeometry x="80" y="770" width="110" height="30" as="geometry" />
        </mxCell>
        <mxCell id="JwO9iRjCoK25Ud6K1Ixc-12" style="edgeStyle=orthogonalEdgeStyle;rounded=0;orthogonalLoop=1;jettySize=auto;html=1;entryX=0.125;entryY=1;entryDx=0;entryDy=0;entryPerimeter=0;endArrow=none;endFill=0;exitX=0;exitY=0.5;exitDx=0;exitDy=0;" edge="1" parent="1" source="JwO9iRjCoK25Ud6K1Ixc-14">
          <mxGeometry relative="1" as="geometry">
            <mxPoint x="130" y="195" as="sourcePoint" />
            <mxPoint x="100" y="160" as="targetPoint" />
            <Array as="points">
              <mxPoint x="100" y="395" />
            </Array>
          </mxGeometry>
        </mxCell>
        <mxCell id="JwO9iRjCoK25Ud6K1Ixc-14" value="Resumenes" style="html=1;whiteSpace=wrap;" vertex="1" parent="1">
          <mxGeometry x="140" y="380" width="110" height="30" as="geometry" />
        </mxCell>
        <mxCell id="JwO9iRjCoK25Ud6K1Ixc-23" style="edgeStyle=orthogonalEdgeStyle;rounded=0;orthogonalLoop=1;jettySize=auto;html=1;exitX=0;exitY=0.5;exitDx=0;exitDy=0;endArrow=none;endFill=0;" edge="1" parent="1" source="tNeV89oZJhi88h8_iD_C-3">
          <mxGeometry relative="1" as="geometry">
            <mxPoint x="40" y="464.80952380952374" as="targetPoint" />
          </mxGeometry>
        </mxCell>
        <mxCell id="tNeV89oZJhi88h8_iD_C-3" value="Practicos" style="html=1;whiteSpace=wrap;" vertex="1" parent="1">
          <mxGeometry x="80" y="450" width="110" height="30" as="geometry" />
        </mxCell>
        <mxCell id="JwO9iRjCoK25Ud6K1Ixc-15" style="edgeStyle=orthogonalEdgeStyle;rounded=0;orthogonalLoop=1;jettySize=auto;html=1;exitX=0;exitY=0.5;exitDx=0;exitDy=0;endArrow=none;endFill=0;" edge="1" parent="1">
          <mxGeometry relative="1" as="geometry">
            <mxPoint x="100" y="349.74" as="targetPoint" />
            <mxPoint x="140" y="349.74" as="sourcePoint" />
            <Array as="points">
              <mxPoint x="140" y="345" />
              <mxPoint x="100" y="345" />
            </Array>
          </mxGeometry>
        </mxCell>
        <mxCell id="JwO9iRjCoK25Ud6K1Ixc-16" style="edgeStyle=orthogonalEdgeStyle;rounded=0;orthogonalLoop=1;jettySize=auto;html=1;exitX=0;exitY=0.5;exitDx=0;exitDy=0;endArrow=none;endFill=0;" edge="1" parent="1">
          <mxGeometry relative="1" as="geometry">
            <mxPoint x="100" y="200.74" as="targetPoint" />
            <mxPoint x="140" y="200.74" as="sourcePoint" />
            <Array as="points">
              <mxPoint x="140" y="196" />
              <mxPoint x="100" y="196" />
            </Array>
          </mxGeometry>
        </mxCell>
        <mxCell id="JwO9iRjCoK25Ud6K1Ixc-21" style="edgeStyle=orthogonalEdgeStyle;rounded=0;orthogonalLoop=1;jettySize=auto;html=1;exitX=0;exitY=0.5;exitDx=0;exitDy=0;endArrow=none;endFill=0;" edge="1" parent="1" source="tNeV89oZJhi88h8_iD_C-4">
          <mxGeometry relative="1" as="geometry">
            <mxPoint x="100" y="514.8095238095237" as="targetPoint" />
          </mxGeometry>
        </mxCell>
        <mxCell id="tNeV89oZJhi88h8_iD_C-4" value="TP_investigacion" style="html=1;whiteSpace=wrap;" vertex="1" parent="1">
          <mxGeometry x="140" y="500" width="110" height="30" as="geometry" />
        </mxCell>
        <mxCell id="JwO9iRjCoK25Ud6K1Ixc-20" style="edgeStyle=orthogonalEdgeStyle;rounded=0;orthogonalLoop=1;jettySize=auto;html=1;exitX=0;exitY=0.5;exitDx=0;exitDy=0;endArrow=none;endFill=0;" edge="1" parent="1" source="tNeV89oZJhi88h8_iD_C-5">
          <mxGeometry relative="1" as="geometry">
            <mxPoint x="100" y="564.8095238095237" as="targetPoint" />
          </mxGeometry>
        </mxCell>
        <mxCell id="tNeV89oZJhi88h8_iD_C-8" style="edgeStyle=orthogonalEdgeStyle;rounded=0;orthogonalLoop=1;jettySize=auto;html=1;exitX=0.5;exitY=1;exitDx=0;exitDy=0;entryX=0;entryY=0.5;entryDx=0;entryDy=0;endArrow=none;endFill=0;" edge="1" parent="1" source="tNeV89oZJhi88h8_iD_C-5" target="tNeV89oZJhi88h8_iD_C-7">
          <mxGeometry relative="1" as="geometry">
            <Array as="points">
              <mxPoint x="170" y="580" />
              <mxPoint x="170" y="615" />
            </Array>
          </mxGeometry>
        </mxCell>
        <mxCell id="tNeV89oZJhi88h8_iD_C-5" value="TP_Evaluables" style="html=1;whiteSpace=wrap;" vertex="1" parent="1">
          <mxGeometry x="140" y="550" width="110" height="30" as="geometry" />
        </mxCell>
        <mxCell id="JwO9iRjCoK25Ud6K1Ixc-26" style="edgeStyle=orthogonalEdgeStyle;rounded=0;orthogonalLoop=1;jettySize=auto;html=1;exitX=0.25;exitY=1;exitDx=0;exitDy=0;entryX=0;entryY=0.5;entryDx=0;entryDy=0;endArrow=none;endFill=0;" edge="1" parent="1" source="tNeV89oZJhi88h8_iD_C-6" target="JwO9iRjCoK25Ud6K1Ixc-25">
          <mxGeometry relative="1" as="geometry" />
        </mxCell>
        <mxCell id="tNeV89oZJhi88h8_iD_C-6" value="TP_No_Evaluables" style="html=1;whiteSpace=wrap;" vertex="1" parent="1">
          <mxGeometry x="140" y="650" width="110" height="30" as="geometry" />
        </mxCell>
        <mxCell id="JwO9iRjCoK25Ud6K1Ixc-19" style="edgeStyle=orthogonalEdgeStyle;rounded=0;orthogonalLoop=1;jettySize=auto;html=1;endArrow=none;endFill=0;exitX=0;exitY=0.5;exitDx=0;exitDy=0;" edge="1" parent="1" source="tNeV89oZJhi88h8_iD_C-6">
          <mxGeometry relative="1" as="geometry">
            <mxPoint x="140" y="690" as="sourcePoint" />
            <mxPoint x="100" y="480" as="targetPoint" />
            <Array as="points">
              <mxPoint x="100" y="665" />
            </Array>
          </mxGeometry>
        </mxCell>
        <mxCell id="tNeV89oZJhi88h8_iD_C-7" value="TP_N" style="html=1;whiteSpace=wrap;" vertex="1" parent="1">
          <mxGeometry x="200" y="600" width="110" height="30" as="geometry" />
        </mxCell>
        <mxCell id="JwO9iRjCoK25Ud6K1Ixc-25" value="N_Tema_X" style="html=1;whiteSpace=wrap;" vertex="1" parent="1">
          <mxGeometry x="200" y="700" width="110" height="30" as="geometry" />
        </mxCell>
        <mxCell id="JwO9iRjCoK25Ud6K1Ixc-27" value="Tema_X" style="html=1;whiteSpace=wrap;" vertex="1" parent="1">
          <mxGeometry x="200" y="230" width="110" height="30" as="geometry" />
        </mxCell>
      </root>
    </mxGraphModel>
  </diagram>
</mxfile>
